<svg width="73" height="24" viewBox="0 0 73 24" fill="none" xmlns="http://www.w3.org/2000/svg">
<path fill-rule="evenodd" clip-rule="evenodd" d="M14.3367 18.1957C9.91325 22.1684 4.33681 18.3153 4.57187 13.9317C4.74667 10.6737 8.14688 7.23485 12.4731 8.92438L14.0468 5.33015C4.6665 2.31579 -0.31933 10.2275 0.745764 15.5567C2.46792 24.1719 11.8855 25.7922 17.0698 21.0138L14.3367 18.1957ZM18.8712 11.3953L18.954 23.3214H22.6396L22.6809 11.3953C22.806 7.93105 19.1954 7.20921 17.2561 6.45335L15.6825 10.0067L18.8712 11.3953ZM30.6971 5.4738C25.9895 7.54324 23.2234 13.8144 26.7807 19.3186L44.2977 11.9669C42.4477 5.30308 35.6922 3.27785 30.6971 5.4738ZM29.079 14.8055C29.0122 8.31995 35.9557 6.6182 39.1005 10.5578L29.079 14.8055ZM38.7901 18.1753C36.7998 20.0702 34.4533 20.3153 31.7501 18.9105L29.6796 22.1778C34.3341 24.4626 37.4124 24.2312 41.6473 20.9934L38.7901 18.1753ZM46.1198 0.286255L46.1611 18.9513C46.1499 22.411 49.7752 22.8816 51.5446 23.6891L52.9939 20.1357L49.8468 18.7472L49.7638 0.286255H46.1198ZM54.5677 9.96551C50.5052 19.0373 60.8802 28.2445 69.807 21.1973L67.198 18.3384C63.5416 22.2732 55.2043 17.7941 58.2118 11.7626L54.5677 9.96551Z" fill="white"/>
<path fill-rule="evenodd" clip-rule="evenodd" d="M59.5163 10.0272C63.8997 6.06753 71.0777 10.3425 68.5027 16.6029L72.1054 18.2775C76.4311 7.51972 64.0491 0.726153 56.8246 7.0865L59.5163 10.0272ZM20.7969 5.14609C22.2492 5.14609 23.4265 3.99414 23.4265 2.57311C23.4265 1.15207 22.2492 0 20.7969 0C19.3446 0 18.1672 1.15195 18.1672 2.57311C18.1672 3.99426 19.3446 5.14609 20.7969 5.14609Z" fill="#9E9E9E"/>
</svg>
